# File created by Blade
# Date/Time:  Wed Jan 21 17:34:04 2015
# Frame Rate: 120.000 fps
#------------------------------------------------------
:FULLY-SPECIFIED
:DEGREES
1423
root 22.867984 26.181667 -16.282742 -184.611428 -5.655664 -179.755111
Spine 31.452561 9.837248 -3.333346
Head -9.405641 -8.288204 7.931677
LeftShoulder 11.766307 -36.473716 1.950343
LeftArm 27.257341 33.371441 -66.289476
LeftForeArm 6.766610 -0.000000 38.374022
LeftHand -0.864124 -0.000000 11.273856
LeftHandThumb1 -26.253704 0.000000 33.147579
RightShoulder 5.718164 4.627857 -3.275126
RightArm 65.814456 -21.995535 51.627807
RightForeArm -47.291867 -0.000000 71.262272
RightHand 1.694374 -0.000000 5.996309
RightHandThumb1 -24.326973 -0.000000 -32.862282
LeftUpLeg -44.380665 3.416970 5.236220
LeftLeg 85.972493 -0.000000 -0.000000
LeftFoot -50.762851 18.648699 -13.460168
LeftToeBase 24.355445 -0.000000 -0.000000
RightUpLeg -43.242848 -14.598320 -2.749510
RightLeg 93.270897 -0.000000 -0.000000
RightFoot -46.010899 -13.406910 21.357734
RightToeBase 13.400552 -0.000000 -0.000000
1424
root 22.842557 26.550293 -16.331810 -184.472768 -5.678686 -179.841659
Spine 30.749451 9.843194 -3.449948
Head -8.976334 -8.380028 7.919250
LeftShoulder 11.725843 -36.341658 1.812907
LeftArm 27.112011 34.731335 -66.730776
LeftForeArm 7.430788 -0.000000 38.827617
LeftHand -0.738510 -0.000000 10.774687
LeftHandThumb1 -26.253704 0.000000 33.147579
RightShoulder 5.555772 4.107931 -2.631140
RightArm 64.772848 -22.972740 51.725757
RightForeArm -46.972863 -0.000000 71.701630
RightHand 1.541635 0.000000 5.859081
RightHandThumb1 -24.326973 -0.000000 -32.862282
LeftUpLeg -43.248772 3.259720 5.047577
LeftLeg 83.963658 -0.000000 -0.000000
LeftFoot -50.537534 18.781735 -13.417857
LeftToeBase 24.552056 -0.000000 -0.000000
RightUpLeg -42.122650 -14.555009 -2.821124
RightLeg 91.209548 -0.000000 -0.000000
RightFoot -46.162855 -13.540829 21.494043
RightToeBase 14.008824 -0.000000 -0.000000
1425
root 22.820356 26.911420 -16.387151 -184.342309 -5.699441 -179.826357
Spine 30.024593 9.873598 -3.404566
Head -8.478159 -8.657117 7.842197
LeftShoulder 11.763662 -36.179207 1.587384
LeftArm 26.794943 36.013267 -67.277502
LeftForeArm 7.804562 -0.000000 39.408891
LeftHand -0.777641 0.000000 10.078926
LeftHandThumb1 -26.253704 0.000000 33.147579
RightShoulder 5.309459 3.618153 -2.042038
RightArm 63.614243 -23.960397 51.890034
RightForeArm -46.736202 -0.000000 72.073478
RightHand 1.440809 0.000000 5.651658
RightHandThumb1 -24.326973 -0.000000 -32.862282
LeftUpLeg -42.200068 3.030822 4.956783
LeftLeg 82.086789 -0.000000 -0.000000
LeftFoot -50.268458 18.759906 -13.739697
LeftToeBase 24.556260 -0.000000 -0.000000
RightUpLeg -40.981334 -14.518742 -2.765338
RightLeg 89.098005 -0.000000 -0.000000
RightFoot -46.363191 -13.821516 21.615761
RightToeBase 14.889187 -0.000000 -0.000000
1426
root 22.791834 27.271244 -16.437828 -184.255124 -5.710566 -179.899400
Spine 29.400986 9.783579 -3.543026
Head -8.083425 -8.662952 7.810100
LeftShoulder 11.557005 -35.953999 1.516495
LeftArm 26.626722 37.277248 -67.774883
LeftForeArm 8.598907 0.000000 39.679660
LeftHand -0.504261 0.000000 9.567600
LeftHandThumb1 -26.253704 0.000000 33.147579
RightShoulder 5.203944 3.177314 -1.457911
RightArm 62.417647 -24.898469 52.142758
RightForeArm -46.416443 -0.000000 72.360613
RightHand 1.405958 -0.000000 5.409701
RightHandThumb1 -24.326973 -0.000000 -32.862282
LeftUpLeg -41.038939 2.885681 4.782386
LeftLeg 80.089063 -0.000000 -0.000000
LeftFoot -50.000149 18.823152 -13.746183
LeftToeBase 24.673007 -0.000000 -0.000000
RightUpLeg -39.823107 -14.488773 -2.816706
RightLeg 87.009125 -0.000000 -0.000000
RightFoot -46.481787 -14.098306 21.711388
RightToeBase 15.329210 -0.000000 -0.000000
1427
root 22.758378 27.626273 -16.487985 -184.108048 -5.737566 -179.975629
Spine 28.696052 9.733638 -3.651415
Head -7.645271 -8.839722 7.765839
LeftShoulder 11.379140 -35.566073 1.320527
LeftArm 27.065972 38.964040 -67.902685
LeftForeArm 9.476344 -0.000000 39.422525
LeftHand -0.987171 0.000000 10.165006
LeftHandThumb1 -26.253704 0.000000 33.147579
RightShoulder 4.930979 2.645283 -0.872030
RightArm 61.317694 -25.803375 52.143648
RightForeArm -46.238113 -0.000000 72.617799
RightHand 1.321807 -0.000000 5.088335
RightHandThumb1 -24.326973 -0.000000 -32.862282
LeftUpLeg -39.947169 2.738269 4.589781
LeftLeg 78.082729 -0.000000 -0.000000
LeftFoot -49.651097 18.969132 -13.653717
LeftToeBase 25.111266 -0.000000 -0.000000
RightUpLeg -38.722018 -14.466768 -2.871250
RightLeg 84.910615 -0.000000 -0.000000
RightFoot -46.571310 -14.487864 21.747526
RightToeBase 16.156207 -0.000000 -0.000000
